<svg id="visual" viewBox="0 0 800 200" width="800" height="200" xmlns="http://www.w3.org/2000/svg" xmlns:xlink="http://www.w3.org/1999/xlink" version="1.1"><path d="M0 179L16.7 178C33.3 177 66.7 175 100 160.5C133.3 146 166.7 119 200 118.5C233.3 118 266.7 144 300 156.2C333.3 168.3 366.7 166.7 400 159.8C433.3 153 466.7 141 500 133.8C533.3 126.7 566.7 124.3 600 122.2C633.3 120 666.7 118 700 118.2C733.3 118.3 766.7 120.7 783.3 121.8L800 123L800 0L783.3 0C766.7 0 733.3 0 700 0C666.7 0 633.3 0 600 0C566.7 0 533.3 0 500 0C466.7 0 433.3 0 400 0C366.7 0 333.3 0 300 0C266.7 0 233.3 0 200 0C166.7 0 133.3 0 100 0C66.7 0 33.3 0 16.7 0L0 0Z" fill="#10b981"></path><path d="M0 130L16.7 119.3C33.3 108.7 66.7 87.3 100 88.3C133.3 89.3 166.7 112.7 200 120C233.3 127.3 266.7 118.7 300 120.7C333.3 122.7 366.7 135.3 400 138.5C433.3 141.7 466.7 135.3 500 128.5C533.3 121.7 566.7 114.3 600 113.7C633.3 113 666.7 119 700 121C733.3 123 766.7 121 783.3 120L800 119L800 0L783.3 0C766.7 0 733.3 0 700 0C666.7 0 633.3 0 600 0C566.7 0 533.3 0 500 0C466.7 0 433.3 0 400 0C366.7 0 333.3 0 300 0C266.7 0 233.3 0 200 0C166.7 0 133.3 0 100 0C66.7 0 33.3 0 16.7 0L0 0Z" fill="#059d70"></path><path d="M0 106L16.7 101.8C33.3 97.7 66.7 89.3 100 79.8C133.3 70.3 166.7 59.7 200 55C233.3 50.3 266.7 51.7 300 51.7C333.3 51.7 366.7 50.3 400 51.8C433.3 53.3 466.7 57.7 500 59.8C533.3 62 566.7 62 600 66.7C633.3 71.3 666.7 80.7 700 78.7C733.3 76.7 766.7 63.3 783.3 56.7L800 50L800 0L783.3 0C766.7 0 733.3 0 700 0C666.7 0 633.3 0 600 0C566.7 0 533.3 0 500 0C466.7 0 433.3 0 400 0C366.7 0 333.3 0 300 0C266.7 0 233.3 0 200 0C166.7 0 133.3 0 100 0C66.7 0 33.3 0 16.7 0L0 0Z" fill="#02825e"></path><path d="M0 75L16.7 67.5C33.3 60 66.7 45 100 43.2C133.3 41.3 166.7 52.7 200 63.2C233.3 73.7 266.7 83.3 300 80C333.3 76.7 366.7 60.3 400 55C433.3 49.7 466.7 55.3 500 53C533.3 50.7 566.7 40.3 600 38.5C633.3 36.7 666.7 43.3 700 48.5C733.3 53.7 766.7 57.3 783.3 59.2L800 61L800 0L783.3 0C766.7 0 733.3 0 700 0C666.7 0 633.3 0 600 0C566.7 0 533.3 0 500 0C466.7 0 433.3 0 400 0C366.7 0 333.3 0 300 0C266.7 0 233.3 0 200 0C166.7 0 133.3 0 100 0C66.7 0 33.3 0 16.7 0L0 0Z" fill="#03674d"></path><path d="M0 38L16.7 32.2C33.3 26.3 66.7 14.7 100 17.2C133.3 19.7 166.7 36.3 200 43.7C233.3 51 266.7 49 300 44.3C333.3 39.7 366.7 32.3 400 34C433.3 35.7 466.7 46.3 500 46.8C533.3 47.3 566.7 37.7 600 35.2C633.3 32.7 666.7 37.3 700 37C733.3 36.7 766.7 31.3 783.3 28.7L800 26L800 0L783.3 0C766.7 0 733.3 0 700 0C666.7 0 633.3 0 600 0C566.7 0 533.3 0 500 0C466.7 0 433.3 0 400 0C366.7 0 333.3 0 300 0C266.7 0 233.3 0 200 0C166.7 0 133.3 0 100 0C66.7 0 33.3 0 16.7 0L0 0Z" fill="#064e3b"></path></svg>