<svg id="visual" viewBox="0 0 800 200" width="800" height="200" xmlns="http://www.w3.org/2000/svg" xmlns:xlink="http://www.w3.org/1999/xlink" version="1.1"><path d="M0 163L16.7 156.3C33.3 149.7 66.7 136.3 100 126.7C133.3 117 166.7 111 200 107.7C233.3 104.3 266.7 103.7 300 103.5C333.3 103.3 366.7 103.7 400 101.8C433.3 100 466.7 96 500 102.3C533.3 108.7 566.7 125.3 600 141C633.3 156.7 666.7 171.3 700 164.5C733.3 157.7 766.7 129.3 783.3 115.2L800 101L800 0L783.3 0C766.7 0 733.3 0 700 0C666.7 0 633.3 0 600 0C566.7 0 533.3 0 500 0C466.7 0 433.3 0 400 0C366.7 0 333.3 0 300 0C266.7 0 233.3 0 200 0C166.7 0 133.3 0 100 0C66.7 0 33.3 0 16.7 0L0 0Z" fill="#10b981"></path><path d="M0 88L16.7 99.8C33.3 111.7 66.7 135.3 100 132.7C133.3 130 166.7 101 200 97.5C233.3 94 266.7 116 300 122C333.3 128 366.7 118 400 109.8C433.3 101.7 466.7 95.3 500 103.7C533.3 112 566.7 135 600 140.7C633.3 146.3 666.7 134.7 700 121C733.3 107.3 766.7 91.7 783.3 83.8L800 76L800 0L783.3 0C766.7 0 733.3 0 700 0C666.7 0 633.3 0 600 0C566.7 0 533.3 0 500 0C466.7 0 433.3 0 400 0C366.7 0 333.3 0 300 0C266.7 0 233.3 0 200 0C166.7 0 133.3 0 100 0C66.7 0 33.3 0 16.7 0L0 0Z" fill="#059d70"></path><path d="M0 98L16.7 89.5C33.3 81 66.7 64 100 67C133.3 70 166.7 93 200 103C233.3 113 266.7 110 300 101C333.3 92 366.7 77 400 70.2C433.3 63.3 466.7 64.7 500 68.7C533.3 72.7 566.7 79.3 600 81.5C633.3 83.7 666.7 81.3 700 84.5C733.3 87.7 766.7 96.3 783.3 100.7L800 105L800 0L783.3 0C766.7 0 733.3 0 700 0C666.7 0 633.3 0 600 0C566.7 0 533.3 0 500 0C466.7 0 433.3 0 400 0C366.7 0 333.3 0 300 0C266.7 0 233.3 0 200 0C166.7 0 133.3 0 100 0C66.7 0 33.3 0 16.7 0L0 0Z" fill="#02825e"></path><path d="M0 31L16.7 35.7C33.3 40.3 66.7 49.7 100 49.5C133.3 49.3 166.7 39.7 200 41.7C233.3 43.7 266.7 57.3 300 62.5C333.3 67.7 366.7 64.3 400 58.8C433.3 53.3 466.7 45.7 500 43.8C533.3 42 566.7 46 600 44C633.3 42 666.7 34 700 41.3C733.3 48.7 766.7 71.3 783.3 82.7L800 94L800 0L783.3 0C766.7 0 733.3 0 700 0C666.7 0 633.3 0 600 0C566.7 0 533.3 0 500 0C466.7 0 433.3 0 400 0C366.7 0 333.3 0 300 0C266.7 0 233.3 0 200 0C166.7 0 133.3 0 100 0C66.7 0 33.3 0 16.7 0L0 0Z" fill="#03674d"></path><path d="M0 54L16.7 50.7C33.3 47.3 66.7 40.7 100 33.3C133.3 26 166.7 18 200 13.5C233.3 9 266.7 8 300 10.7C333.3 13.3 366.7 19.7 400 20C433.3 20.3 466.7 14.7 500 13.2C533.3 11.7 566.7 14.3 600 15.2C633.3 16 666.7 15 700 15.2C733.3 15.3 766.7 16.7 783.3 17.3L800 18L800 0L783.3 0C766.7 0 733.3 0 700 0C666.7 0 633.3 0 600 0C566.7 0 533.3 0 500 0C466.7 0 433.3 0 400 0C366.7 0 333.3 0 300 0C266.7 0 233.3 0 200 0C166.7 0 133.3 0 100 0C66.7 0 33.3 0 16.7 0L0 0Z" fill="#064e3b"></path></svg>