<svg id="visual" viewBox="0 0 800 200" width="800" height="200" xmlns="http://www.w3.org/2000/svg" xmlns:xlink="http://www.w3.org/1999/xlink" version="1.1"><path d="M0 63L22.2 67.7C44.3 72.3 88.7 81.7 133.2 77.2C177.7 72.7 222.3 54.3 266.8 62.8C311.3 71.3 355.7 106.7 400 125.3C444.3 144 488.7 146 533.2 128.8C577.7 111.7 622.3 75.3 666.8 78.8C711.3 82.3 755.7 125.7 777.8 147.3L800 169L800 201L777.8 201C755.7 201 711.3 201 666.8 201C622.3 201 577.7 201 533.2 201C488.7 201 444.3 201 400 201C355.7 201 311.3 201 266.8 201C222.3 201 177.7 201 133.2 201C88.7 201 44.3 201 22.2 201L0 201Z" fill="#064E3B" stroke-linecap="round" stroke-linejoin="miter"></path></svg>