<svg id="visual" viewBox="0 0 800 200" width="800" height="200" xmlns="http://www.w3.org/2000/svg" xmlns:xlink="http://www.w3.org/1999/xlink" version="1.1"><path d="M0 145L22.2 131.3C44.3 117.7 88.7 90.3 133.2 71.8C177.7 53.3 222.3 43.7 266.8 51.8C311.3 60 355.7 86 400 104.3C444.3 122.7 488.7 133.3 533.2 122.3C577.7 111.3 622.3 78.7 666.8 79.5C711.3 80.3 755.7 114.7 777.8 131.8L800 149L800 201L777.8 201C755.7 201 711.3 201 666.8 201C622.3 201 577.7 201 533.2 201C488.7 201 444.3 201 400 201C355.7 201 311.3 201 266.8 201C222.3 201 177.7 201 133.2 201C88.7 201 44.3 201 22.2 201L0 201Z" fill="#064E3B" stroke-linecap="round" stroke-linejoin="miter"></path></svg>