<svg id="visual" viewBox="0 0 800 200" width="800" height="200" xmlns="http://www.w3.org/2000/svg" xmlns:xlink="http://www.w3.org/1999/xlink" version="1.1"><path d="M0 144L16.7 142.8C33.3 141.7 66.7 139.3 100 137.7C133.3 136 166.7 135 200 137.3C233.3 139.7 266.7 145.3 300 142C333.3 138.7 366.7 126.3 400 119C433.3 111.7 466.7 109.3 500 113.2C533.3 117 566.7 127 600 128.7C633.3 130.3 666.7 123.7 700 118.7C733.3 113.7 766.7 110.3 783.3 108.7L800 107L800 0L783.3 0C766.7 0 733.3 0 700 0C666.7 0 633.3 0 600 0C566.7 0 533.3 0 500 0C466.7 0 433.3 0 400 0C366.7 0 333.3 0 300 0C266.7 0 233.3 0 200 0C166.7 0 133.3 0 100 0C66.7 0 33.3 0 16.7 0L0 0Z" fill="#10b981"></path><path d="M0 82L16.7 93.2C33.3 104.3 66.7 126.7 100 138.3C133.3 150 166.7 151 200 142.3C233.3 133.7 266.7 115.3 300 115.3C333.3 115.3 366.7 133.7 400 138C433.3 142.3 466.7 132.7 500 122.3C533.3 112 566.7 101 600 95.2C633.3 89.3 666.7 88.7 700 89.3C733.3 90 766.7 92 783.3 93L800 94L800 0L783.3 0C766.7 0 733.3 0 700 0C666.7 0 633.3 0 600 0C566.7 0 533.3 0 500 0C466.7 0 433.3 0 400 0C366.7 0 333.3 0 300 0C266.7 0 233.3 0 200 0C166.7 0 133.3 0 100 0C66.7 0 33.3 0 16.7 0L0 0Z" fill="#059d70"></path><path d="M0 77L16.7 76C33.3 75 66.7 73 100 71.2C133.3 69.3 166.7 67.7 200 70.7C233.3 73.7 266.7 81.3 300 87C333.3 92.7 366.7 96.3 400 97C433.3 97.7 466.7 95.3 500 93.3C533.3 91.3 566.7 89.7 600 84.5C633.3 79.3 666.7 70.7 700 71.3C733.3 72 766.7 82 783.3 87L800 92L800 0L783.3 0C766.7 0 733.3 0 700 0C666.7 0 633.3 0 600 0C566.7 0 533.3 0 500 0C466.7 0 433.3 0 400 0C366.7 0 333.3 0 300 0C266.7 0 233.3 0 200 0C166.7 0 133.3 0 100 0C66.7 0 33.3 0 16.7 0L0 0Z" fill="#02825e"></path><path d="M0 52L16.7 50C33.3 48 66.7 44 100 48.3C133.3 52.7 166.7 65.3 200 72.5C233.3 79.7 266.7 81.3 300 74C333.3 66.7 366.7 50.3 400 41C433.3 31.7 466.7 29.3 500 34.5C533.3 39.7 566.7 52.3 600 55.3C633.3 58.3 666.7 51.7 700 56.2C733.3 60.7 766.7 76.3 783.3 84.2L800 92L800 0L783.3 0C766.7 0 733.3 0 700 0C666.7 0 633.3 0 600 0C566.7 0 533.3 0 500 0C466.7 0 433.3 0 400 0C366.7 0 333.3 0 300 0C266.7 0 233.3 0 200 0C166.7 0 133.3 0 100 0C66.7 0 33.3 0 16.7 0L0 0Z" fill="#03674d"></path><path d="M0 51L16.7 46.5C33.3 42 66.7 33 100 31.5C133.3 30 166.7 36 200 40.7C233.3 45.3 266.7 48.7 300 49C333.3 49.3 366.7 46.7 400 45.7C433.3 44.7 466.7 45.3 500 39C533.3 32.7 566.7 19.3 600 15.5C633.3 11.7 666.7 17.3 700 25.7C733.3 34 766.7 45 783.3 50.5L800 56L800 0L783.3 0C766.7 0 733.3 0 700 0C666.7 0 633.3 0 600 0C566.7 0 533.3 0 500 0C466.7 0 433.3 0 400 0C366.7 0 333.3 0 300 0C266.7 0 233.3 0 200 0C166.7 0 133.3 0 100 0C66.7 0 33.3 0 16.7 0L0 0Z" fill="#064e3b"></path></svg>